<svg width="72" height="72" viewBox="0 0 72 72" fill="none" xmlns="http://www.w3.org/2000/svg">
  <g transform="translate(36 36)">
    <path d="M0 -30c10 0 18 8 18 18 0 6-3 10-6 13-5 5-12 2-12-6V-30z" fill="black"/>
    <path d="M30 0c0-10-8-18-18-18-6 0-10 3-13 6-5 5-2 12 6 12H30z" fill="black" transform="rotate(90)"/>
    <path d="M0 30c-10 0-18-8-18-18 0-6 3-10 6-13 5-5 12-2 12 6V30z" fill="black" transform="rotate(180)"/>
    <path d="M-30 0c0 10 8 18 18 18 6 0 10-3 13-6 5-5 2-12-6-12H-30z" fill="black" transform="rotate(270)"/>
  </g>
</svg>
